<?xml version="1.0" standalone="no"?>
<!DOCTYPE svg PUBLIC "-//W3C//DTD SVG 20010904//EN"
 "http://www.w3.org/TR/2001/REC-SVG-20010904/DTD/svg10.dtd">
<svg version="1.0" xmlns="http://www.w3.org/2000/svg"
 width="512.000000pt" height="512.000000pt" viewBox="0 0 512.000000 512.000000"
 preserveAspectRatio="xMidYMid meet">
<metadata>
Created by potrace 1.11, written by Peter Selinger 2001-2013
</metadata>
<g transform="translate(0.000000,512.000000) scale(0.100000,-0.100000)"
fill="#000000" stroke="none">
<path d="M2716 4810 c-104 -17 -246 -59 -333 -100 -352 -165 -543 -456 -543
-830 l0 -110 -40 0 c-120 0 -199 -47 -225 -132 -29 -100 -11 -252 39 -329 51
-76 145 -150 218 -170 41 -11 35 1 78 -164 42 -160 131 -347 205 -432 l45 -51
-26 -21 c-37 -29 -112 -48 -219 -56 -269 -20 -469 -93 -607 -223 -94 -89 -155
-192 -211 -354 -5 -15 -34 -17 -284 -20 -267 -3 -280 -4 -325 -26 -67 -33
-124 -99 -143 -166 -24 -82 -18 -783 7 -837 l16 -37 -38 -17 c-184 -83 -169
-352 23 -424 19 -8 293 -11 836 -11 l807 0 53 26 c57 29 105 85 116 135 l7 29
1182 0 c806 0 1201 3 1242 11 190 35 324 180 324 352 0 44 -31 194 -106 512
-58 247 -115 477 -126 510 -75 221 -229 387 -432 466 -91 35 -244 66 -366 74
-111 8 -186 26 -223 55 l-26 21 43 53 c23 29 57 77 74 107 46 81 117 271 142
382 15 66 27 97 37 97 31 0 138 65 185 111 73 73 101 142 106 260 5 108 -6
153 -46 201 -36 42 -79 58 -160 58 l-70 0 -5 148 c-3 107 -11 168 -26 226 -95
344 -365 578 -771 666 -70 16 -356 22 -434 10z m-285 -976 c37 -7 136 -38 221
-68 208 -74 284 -94 411 -108 177 -20 438 16 662 92 l87 29 -4 -272 c-2 -150
-7 -279 -11 -287 -4 -8 -23 -26 -43 -39 -20 -14 -54 -44 -76 -67 -38 -40 -124
-93 -175 -108 -16 -5 -36 6 -85 47 -35 30 -81 63 -103 74 -121 62 -307 88
-520 74 -210 -14 -316 -52 -428 -150 -66 -58 -66 -58 -158 -10 -60 32 -186
154 -213 206 -14 29 -16 67 -14 305 l3 272 40 9 c132 28 277 28 406 1z m-591
-380 l0 -167 -32 25 c-18 14 -46 44 -63 67 -27 38 -30 52 -34 127 -4 104 2
114 75 114 l54 0 0 -166z m2230 151 c8 -10 11 -43 9 -104 -4 -82 -7 -92 -34
-126 -17 -21 -45 -49 -63 -63 l-32 -25 0 167 0 166 54 0 c35 0 58 -5 66 -15z
m-1605 -1306 c108 -42 269 -78 385 -85 195 -13 498 66 642 168 l28 19 42 -33
c24 -18 44 -34 46 -35 9 -4 -26 -52 -72 -102 -94 -100 -214 -162 -389 -200
-49 -11 -97 -27 -107 -36 -50 -45 -15 -120 55 -117 58 2 199 40 285 76 104 44
182 97 261 178 63 64 69 68 112 68 62 0 197 -26 288 -56 218 -71 369 -233 437
-469 40 -137 214 -891 215 -935 2 -42 0 -45 -43 -70 -41 -23 -55 -25 -165 -25
l-119 0 -52 210 c-59 243 -58 238 -89 255 -31 17 -71 6 -91 -26 -17 -24 -15
-33 31 -222 26 -108 50 -203 52 -209 4 -10 -207 -13 -1032 -13 l-1038 0 -33
39 c-18 21 -47 44 -63 51 l-30 12 18 37 c10 20 24 52 30 72 l12 37 97 4 c74 3
108 10 144 27 75 36 134 95 170 169 29 59 33 76 33 147 -1 65 -5 90 -27 135
-37 80 -89 134 -163 171 -53 26 -80 32 -155 37 -87 5 -91 6 -97 31 -16 68 -75
145 -137 179 -27 15 -75 17 -363 20 -386 3 -357 -9 -291 123 106 213 311 318
663 342 l60 4 44 -60 c95 -128 313 -260 516 -312 169 -44 225 -34 225 40 0 46
-24 61 -135 86 -189 40 -340 117 -448 226 l-58 59 50 33 c28 18 53 36 56 41 3
5 31 -7 63 -26 31 -19 93 -48 137 -65z m-1595 -689 c0 -58 -1 -60 -26 -60 -38
0 -89 -35 -108 -74 -13 -27 -16 -67 -16 -188 0 -171 8 -199 72 -238 29 -19 47
-20 155 -18 136 3 162 14 195 79 26 50 26 308 0 359 -20 40 -74 80 -108 80
-23 0 -24 4 -24 60 l0 60 425 0 c473 0 468 1 499 -65 15 -31 17 -72 14 -363
-3 -317 -4 -329 -26 -377 -13 -27 -35 -62 -49 -77 l-27 -28 -252 0 c-239 0
-253 -1 -278 -21 -19 -15 -26 -30 -26 -53 0 -65 0 -65 364 -68 l328 -3 24 -28
c33 -39 31 -81 -5 -118 l-29 -29 -787 0 -787 0 -29 29 c-36 37 -38 79 -5 118
l24 28 341 5 c325 5 341 6 355 25 26 34 16 83 -21 101 -10 5 -135 11 -278 14
l-260 5 -25 45 -25 45 -3 330 c-2 182 -1 350 3 374 5 32 16 54 40 78 l33 33
161 0 161 0 0 -60z m1406 -201 c28 -13 56 -37 72 -62 23 -34 27 -51 27 -112 0
-61 -4 -77 -28 -113 -36 -56 -91 -82 -183 -89 l-74 -6 0 208 0 208 71 -6 c41
-3 89 -15 115 -28z m-1256 -119 l0 -120 -80 0 -80 0 0 120 0 120 80 0 80 0 0
-120z"/>
<path d="M2474 3469 c-57 -7 -114 -31 -139 -59 -25 -27 -23 -80 5 -102 29 -23
55 -23 96 3 46 28 132 28 178 0 41 -26 67 -26 97 -3 27 23 30 73 5 101 -42 46
-146 72 -242 60z"/>
<path d="M3123 3453 c-45 -16 -93 -63 -93 -92 0 -29 39 -71 65 -71 14 0 39 9
57 20 45 27 141 28 183 0 17 -11 40 -20 53 -20 31 0 62 34 62 69 0 36 -53 85
-107 100 -54 15 -170 12 -220 -6z"/>
<path d="M1112 2936 c-90 -98 -100 -175 -38 -313 39 -89 39 -97 -7 -154 -36
-46 -35 -93 5 -122 34 -25 70 -17 110 26 78 83 88 175 33 297 -19 43 -35 87
-35 98 0 12 13 36 29 54 57 67 63 96 26 133 -38 39 -75 33 -123 -19z"/>
<path d="M690 2622 c-87 -93 -98 -183 -36 -319 40 -90 40 -96 -10 -156 -47
-56 -19 -127 50 -127 28 0 42 8 75 46 22 25 45 62 52 81 18 56 7 139 -30 220
-38 83 -37 104 11 159 54 62 33 134 -40 134 -28 0 -43 -8 -72 -38z"/>
</g>
</svg>
